<svg width="176" height="23" viewBox="0 0 176 23" fill="none" xmlns="http://www.w3.org/2000/svg">
<path d="M0.553977 22V0.90909H7.92756C9.39678 0.90909 10.6085 1.16312 11.5629 1.67116C12.5172 2.17235 13.2277 2.8486 13.6946 3.69993C14.1615 4.54439 14.3949 5.48153 14.3949 6.51136C14.3949 7.41761 14.2335 8.16596 13.9109 8.75639C13.5951 9.34683 13.1763 9.81368 12.6545 10.157C12.1396 10.5002 11.58 10.7543 10.9759 10.919V11.125C11.6212 11.1662 12.27 11.3928 12.9222 11.8047C13.5745 12.2166 14.1203 12.8071 14.5597 13.576C14.9991 14.3449 15.2188 15.2855 15.2188 16.3977C15.2188 17.455 14.9785 18.4059 14.4979 19.2504C14.0173 20.0948 13.2586 20.7642 12.2219 21.2585C11.1853 21.7528 9.83617 22 8.17472 22H0.553977ZM3.10795 19.7344H8.17472C9.84304 19.7344 11.0273 19.4117 11.7276 18.7663C12.4348 18.1141 12.7884 17.3246 12.7884 16.3977C12.7884 15.6837 12.6064 15.0246 12.2425 14.4205C11.8787 13.8094 11.3603 13.322 10.6875 12.9581C10.0147 12.5874 9.21828 12.402 8.2983 12.402H3.10795V19.7344ZM3.10795 10.1776H7.84517C8.61411 10.1776 9.30753 10.0265 9.92543 9.72443C10.5502 9.42235 11.0445 8.99669 11.4084 8.44744C11.7791 7.8982 11.9645 7.25284 11.9645 6.51136C11.9645 5.58452 11.6418 4.79841 10.9964 4.15305C10.3511 3.50083 9.32813 3.17472 7.92756 3.17472H3.10795V10.1776ZM25.7179 22.3295C24.1937 22.3295 22.879 21.9931 21.7736 21.3203C20.6751 20.6406 19.8272 19.6932 19.2299 18.478C18.6395 17.2559 18.3443 15.8348 18.3443 14.2145C18.3443 12.5942 18.6395 11.1662 19.2299 9.9304C19.8272 8.68774 20.658 7.7197 21.7221 7.02628C22.7931 6.32599 24.0427 5.97585 25.4707 5.97585C26.2946 5.97585 27.1081 6.11316 27.9114 6.38778C28.7147 6.6624 29.4458 7.10866 30.1049 7.72656C30.764 8.33759 31.2892 9.14773 31.6806 10.157C32.0719 11.1662 32.2676 12.4089 32.2676 13.8849V14.9148H20.0744V12.8139H29.796C29.796 11.9214 29.6175 11.125 29.2605 10.4247C28.9103 9.72443 28.4092 9.17176 27.7569 8.76669C27.1116 8.36162 26.3495 8.15909 25.4707 8.15909C24.5027 8.15909 23.6651 8.39938 22.9579 8.87997C22.2576 9.35369 21.7187 9.97159 21.3411 10.7337C20.9635 11.4957 20.7747 12.3127 20.7747 13.1847V14.5852C20.7747 15.7798 20.9806 16.7925 21.3926 17.6232C21.8114 18.4471 22.3915 19.0753 23.133 19.5078C23.8745 19.9335 24.7361 20.1463 25.7179 20.1463C26.3564 20.1463 26.9331 20.0571 27.448 19.8786C27.9698 19.6932 28.4194 19.4186 28.7971 19.0547C29.1747 18.6839 29.4664 18.224 29.6724 17.6747L32.0204 18.3338C31.7733 19.1302 31.3579 19.8305 30.7743 20.4347C30.1908 21.032 29.4699 21.4988 28.6117 21.8352C27.7535 22.1648 26.7889 22.3295 25.7179 22.3295ZM42.8439 6.18182V8.24148H34.6465V6.18182H42.8439ZM37.0357 2.39205H39.4661V17.4688C39.4661 18.1553 39.5656 18.6702 39.7647 19.0135C39.9707 19.3499 40.2316 19.5765 40.5474 19.6932C40.8701 19.803 41.2099 19.858 41.5669 19.858C41.8347 19.858 42.0544 19.8442 42.226 19.8168C42.3977 19.7824 42.535 19.755 42.638 19.7344L43.1323 21.9176C42.9675 21.9794 42.7375 22.0412 42.4423 22.103C42.1471 22.1716 41.7729 22.206 41.3198 22.206C40.6332 22.206 39.9604 22.0584 39.3013 21.7631C38.6491 21.4679 38.1067 21.0182 37.6742 20.4141C37.2485 19.8099 37.0357 19.0478 37.0357 18.1278V2.39205ZM53.3791 6.18182V8.24148H45.1816V6.18182H53.3791ZM47.5708 2.39205H50.0012V17.4688C50.0012 18.1553 50.1008 18.6702 50.2999 19.0135C50.5059 19.3499 50.7667 19.5765 51.0826 19.6932C51.4052 19.803 51.7451 19.858 52.1021 19.858C52.3699 19.858 52.5895 19.8442 52.7612 19.8168C52.9328 19.7824 53.0701 19.755 53.1731 19.7344L53.6674 21.9176C53.5027 21.9794 53.2727 22.0412 52.9775 22.103C52.6822 22.1716 52.3081 22.206 51.8549 22.206C51.1684 22.206 50.4956 22.0584 49.8365 21.7631C49.1842 21.4679 48.6419 21.0182 48.2093 20.4141C47.7837 19.8099 47.5708 19.0478 47.5708 18.1278V2.39205ZM63.4972 22.3295C61.973 22.3295 60.6583 21.9931 59.5529 21.3203C58.4544 20.6406 57.6065 19.6932 57.0092 18.478C56.4188 17.2559 56.1236 15.8348 56.1236 14.2145C56.1236 12.5942 56.4188 11.1662 57.0092 9.9304C57.6065 8.68774 58.4373 7.7197 59.5014 7.02628C60.5724 6.32599 61.822 5.97585 63.25 5.97585C64.0739 5.97585 64.8874 6.11316 65.6907 6.38778C66.494 6.6624 67.2251 7.10866 67.8842 7.72656C68.5433 8.33759 69.0685 9.14773 69.4599 10.157C69.8512 11.1662 70.0469 12.4089 70.0469 13.8849V14.9148H57.8537V12.8139H67.5753C67.5753 11.9214 67.3968 11.125 67.0398 10.4247C66.6896 9.72443 66.1884 9.17176 65.5362 8.76669C64.8909 8.36162 64.1288 8.15909 63.25 8.15909C62.282 8.15909 61.4444 8.39938 60.7372 8.87997C60.0369 9.35369 59.498 9.97159 59.1204 10.7337C58.7428 11.4957 58.554 12.3127 58.554 13.1847V14.5852C58.554 15.7798 58.7599 16.7925 59.1719 17.6232C59.5907 18.4471 60.1708 19.0753 60.9123 19.5078C61.6538 19.9335 62.5154 20.1463 63.4972 20.1463C64.1357 20.1463 64.7124 20.0571 65.2273 19.8786C65.7491 19.6932 66.1987 19.4186 66.5763 19.0547C66.954 18.6839 67.2457 18.224 67.4517 17.6747L69.7997 18.3338C69.5526 19.1302 69.1372 19.8305 68.5536 20.4347C67.9701 21.032 67.2492 21.4988 66.391 21.8352C65.5328 22.1648 64.5682 22.3295 63.4972 22.3295ZM73.744 22V6.18182H76.092V8.57102H76.2567C76.5451 7.78835 77.0669 7.15329 77.8221 6.66584C78.5773 6.17838 79.4286 5.93466 80.3761 5.93466C80.5546 5.93466 80.7777 5.93809 81.0455 5.94496C81.3132 5.95182 81.5157 5.96212 81.6531 5.97585V8.44744C81.5707 8.42685 81.3819 8.39595 81.0866 8.35476C80.7983 8.3067 80.4928 8.28267 80.1701 8.28267C79.4012 8.28267 78.7146 8.44401 78.1104 8.76669C77.5131 9.0825 77.0394 9.5219 76.6893 10.0849C76.346 10.641 76.1744 11.276 76.1744 11.9901V22H73.744ZM99.2812 7.5C99.0546 6.80658 98.7559 6.18525 98.3852 5.63601C98.0213 5.0799 97.5854 4.60618 97.0773 4.21484C96.5761 3.82351 96.0063 3.52486 95.3678 3.31889C94.7293 3.11293 94.029 3.00994 93.267 3.00994C92.0174 3.00994 90.8812 3.33262 89.8582 3.97798C88.8353 4.62334 88.0217 5.57422 87.4175 6.83061C86.8134 8.087 86.5113 9.62831 86.5113 11.4545C86.5113 13.2808 86.8168 14.8221 87.4278 16.0785C88.0389 17.3349 88.8662 18.2857 89.9097 18.9311C90.9533 19.5765 92.1273 19.8991 93.4317 19.8991C94.6401 19.8991 95.7042 19.6417 96.6242 19.1268C97.551 18.605 98.2719 17.8704 98.7868 16.9229C99.3086 15.9686 99.5695 14.8461 99.5695 13.5554L100.352 13.7202H94.0084V11.4545H102.041V13.7202C102.041 15.4571 101.67 16.9676 100.929 18.2514C100.194 19.5353 99.1782 20.5308 97.8806 21.2379C96.5899 21.9382 95.1069 22.2884 93.4317 22.2884C91.5643 22.2884 89.9234 21.849 88.5091 20.9702C87.1017 20.0914 86.0032 18.8419 85.2137 17.2216C84.431 15.6013 84.0397 13.679 84.0397 11.4545C84.0397 9.78622 84.2628 8.2861 84.7091 6.95419C85.1622 5.61541 85.8007 4.47573 86.6246 3.53516C87.4484 2.59458 88.4233 1.8737 89.5493 1.37251C90.6752 0.87133 91.9144 0.620738 93.267 0.620738C94.3792 0.620738 95.4159 0.788943 96.377 1.12535C97.3451 1.4549 98.2067 1.92519 98.9619 2.53622C99.724 3.14039 100.359 3.8647 100.867 4.70916C101.375 5.54676 101.725 6.47704 101.918 7.5H99.2812ZM110.741 22.3707C109.738 22.3707 108.829 22.1819 108.012 21.8043C107.195 21.4199 106.546 20.8672 106.065 20.1463C105.585 19.4186 105.344 18.5398 105.344 17.5099C105.344 16.6037 105.523 15.8691 105.88 15.3061C106.237 14.7363 106.714 14.29 107.311 13.9673C107.909 13.6446 108.568 13.4044 109.289 13.2464C110.016 13.0817 110.747 12.9512 111.482 12.8551C112.443 12.7315 113.222 12.6388 113.82 12.5771C114.424 12.5084 114.863 12.3951 115.138 12.2372C115.419 12.0793 115.56 11.8047 115.56 11.4134V11.331C115.56 10.3149 115.282 9.52533 114.726 8.96236C114.177 8.39938 113.343 8.1179 112.224 8.1179C111.063 8.1179 110.154 8.37192 109.494 8.87997C108.835 9.38802 108.372 9.9304 108.104 10.5071L105.797 9.68324C106.209 8.72206 106.759 7.97372 107.445 7.43821C108.139 6.89583 108.894 6.51823 109.711 6.3054C110.535 6.0857 111.345 5.97585 112.141 5.97585C112.649 5.97585 113.233 6.03764 113.892 6.16122C114.558 6.27793 115.2 6.52166 115.818 6.8924C116.442 7.26314 116.961 7.82268 117.373 8.57102C117.785 9.31937 117.991 10.3217 117.991 11.5781V22H115.56V19.858H115.437C115.272 20.2012 114.997 20.5685 114.613 20.9599C114.228 21.3512 113.717 21.6842 113.078 21.9588C112.44 22.2334 111.661 22.3707 110.741 22.3707ZM111.111 20.1875C112.073 20.1875 112.883 19.9987 113.542 19.6211C114.208 19.2435 114.709 18.756 115.045 18.1587C115.389 17.5614 115.56 16.9332 115.56 16.2741V14.0497C115.457 14.1733 115.231 14.2866 114.881 14.3896C114.537 14.4857 114.139 14.5715 113.686 14.647C113.24 14.7157 112.804 14.7775 112.378 14.8324C111.959 14.8804 111.619 14.9216 111.358 14.956C110.727 15.0384 110.136 15.1722 109.587 15.3576C109.045 15.5361 108.605 15.8073 108.269 16.1712C107.939 16.5282 107.775 17.0156 107.775 17.6335C107.775 18.478 108.087 19.1165 108.712 19.549C109.343 19.9747 110.143 20.1875 111.111 20.1875ZM122.427 22V6.18182H124.775V8.65341H124.981C125.31 7.80895 125.842 7.15329 126.577 6.68643C127.311 6.21271 128.194 5.97585 129.223 5.97585C130.267 5.97585 131.136 6.21271 131.829 6.68643C132.529 7.15329 133.075 7.80895 133.466 8.65341H133.631C134.036 7.83641 134.644 7.18762 135.454 6.70703C136.264 6.21958 137.236 5.97585 138.368 5.97585C139.783 5.97585 140.939 6.41868 141.839 7.30433C142.738 8.18312 143.188 9.55279 143.188 11.4134V22H140.758V11.4134C140.758 10.2462 140.438 9.41205 139.8 8.91087C139.161 8.40968 138.41 8.15909 137.544 8.15909C136.432 8.15909 135.571 8.4955 134.96 9.16832C134.349 9.83428 134.043 10.6787 134.043 11.7017V22H131.571V11.1662C131.571 10.2668 131.28 9.5425 130.696 8.99325C130.113 8.43714 129.361 8.15909 128.441 8.15909C127.809 8.15909 127.219 8.3273 126.669 8.66371C126.127 9.00012 125.688 9.46697 125.351 10.0643C125.022 10.6547 124.857 11.3378 124.857 12.1136V22H122.427ZM154.264 22.3295C152.74 22.3295 151.425 21.9931 150.32 21.3203C149.221 20.6406 148.373 19.6932 147.776 18.478C147.185 17.2559 146.89 15.8348 146.89 14.2145C146.89 12.5942 147.185 11.1662 147.776 9.9304C148.373 8.68774 149.204 7.7197 150.268 7.02628C151.339 6.32599 152.589 5.97585 154.017 5.97585C154.84 5.97585 155.654 6.11316 156.457 6.38778C157.261 6.6624 157.992 7.10866 158.651 7.72656C159.31 8.33759 159.835 9.14773 160.226 10.157C160.618 11.1662 160.813 12.4089 160.813 13.8849V14.9148H148.62V12.8139H158.342C158.342 11.9214 158.163 11.125 157.806 10.4247C157.456 9.72443 156.955 9.17176 156.303 8.76669C155.657 8.36162 154.895 8.15909 154.017 8.15909C153.049 8.15909 152.211 8.39938 151.504 8.87997C150.804 9.35369 150.265 9.97159 149.887 10.7337C149.509 11.4957 149.321 12.3127 149.321 13.1847V14.5852C149.321 15.7798 149.527 16.7925 149.938 17.6232C150.357 18.4471 150.937 19.0753 151.679 19.5078C152.42 19.9335 153.282 20.1463 154.264 20.1463C154.902 20.1463 155.479 20.0571 155.994 19.8786C156.516 19.6932 156.965 19.4186 157.343 19.0547C157.721 18.6839 158.012 18.224 158.218 17.6747L160.566 18.3338C160.319 19.1302 159.904 19.8305 159.32 20.4347C158.737 21.032 158.016 21.4988 157.158 21.8352C156.299 22.1648 155.335 22.3295 154.264 22.3295ZM175.715 9.72443L173.532 10.3423C173.395 9.97846 173.192 9.62488 172.924 9.28161C172.663 8.93146 172.306 8.64311 171.853 8.41655C171.4 8.18999 170.82 8.0767 170.113 8.0767C169.145 8.0767 168.338 8.29983 167.693 8.74609C167.054 9.18549 166.735 9.74503 166.735 10.4247C166.735 11.0289 166.955 11.506 167.394 11.8562C167.833 12.2063 168.52 12.4981 169.454 12.7315L171.802 13.3082C173.216 13.6515 174.27 14.1767 174.963 14.8839C175.657 15.5842 176.003 16.487 176.003 17.5923C176.003 18.4986 175.743 19.3087 175.221 20.0227C174.706 20.7367 173.985 21.2997 173.058 21.7116C172.131 22.1236 171.053 22.3295 169.824 22.3295C168.211 22.3295 166.876 21.9794 165.818 21.2791C164.761 20.5788 164.092 19.5559 163.81 18.2102L166.117 17.6335C166.337 18.4848 166.752 19.1233 167.363 19.549C167.981 19.9747 168.788 20.1875 169.783 20.1875C170.916 20.1875 171.815 19.9472 172.481 19.4666C173.154 18.9792 173.491 18.3956 173.491 17.7159C173.491 17.1667 173.298 16.7067 172.914 16.3359C172.53 15.9583 171.939 15.6768 171.143 15.4915L168.506 14.8736C167.058 14.5303 165.994 13.9982 165.314 13.2773C164.641 12.5496 164.305 11.6399 164.305 10.5483C164.305 9.65578 164.555 8.86624 165.056 8.17969C165.564 7.49313 166.254 6.95419 167.126 6.56285C168.005 6.17152 169.001 5.97585 170.113 5.97585C171.678 5.97585 172.907 6.31913 173.8 7.00568C174.699 7.69223 175.338 8.59848 175.715 9.72443Z" fill="black"/>
</svg>
